# xmcd
#
# Track frame offsets:
#	150
#	15868
#	40233
#
# Disc length: 759 seconds
#
# Revision: 1
# Processed by: cddbd v1.5.2PL0 Copyright (c) Steve Scherf et al.
# Submitted via: EasyCDDAExtractor 11.1.0.1
#
DISCID=1402f503
DTITLE=The Wayfaring Strangers - The Wayfaring Strangers EP
DYEAR=2008
DGENRE=Acoustic
TTITLE0=Junkyard Angel
TTITLE1=Run Boy Run
TTITLE2=Wayfaring Stranger
EXTD=
EXTT0=
EXTT1=
EXTT2=
PLAYORDER=
